<?xml version="1.0" encoding="UTF-8" standalone="no"?>
<svg width="50px" height="50px" viewBox="0 0 40 40" version="1.1" xmlns="http://www.w3.org/2000/svg" xmlns:xlink="http://www.w3.org/1999/xlink" xmlns:sketch="http://www.bohemiancoding.com/sketch/ns">
    <!-- Generator: Sketch 3.4.4 (17249) - http://www.bohemiancoding.com/sketch -->
    <title>camera-small</title>
    <desc>Created with Sketch.</desc>
    <defs></defs>
    <g id="Primary-Icons" stroke="none" stroke-width="1" fill="none" fill-rule="evenodd" sketch:type="MSPage">
        <g id="camera-small" sketch:type="MSArtboardGroup" fill="#999fa3">
            <g sketch:type="MSLayerGroup" transform="translate(2.000000, 5.000000)">
                <path d="M2.25000001,10.1242904 L2.25000001,10.1242904 L2.25,24.7507096 C2.25,25.9944596 3.25273483,27 4.48663563,27 L31.5133644,27 C32.7449414,27 33.75,25.9927146 33.75,24.7507096 L33.75,10.1242904 C33.75,8.88203635 32.7427821,7.875 31.5,7.875 L27,7.875 L25.9979346,7.875 L25.3275882,7.13017065 L20.2650882,1.50517065 L21.9375,2.25 L14.0625,2.25 L15.800104,1.42941682 L11.1727724,7.05441682 L10.4977306,7.875 L9.43516846,7.875 L4.49651946,7.875 C3.24906925,7.875 2.25000001,8.87656255 2.25000001,10.1242904 L2.25000001,10.1242904 Z M6.36672158e-09,10.1242904 C7.19388162e-09,7.63940091 2.00095656,5.625 4.49651946,5.625 L9.43516846,5.625 L14.0625,0 L21.9375,0 L27,5.625 L31.5,5.625 C33.9852814,5.625 36,7.63925421 36,10.1242904 L36,24.7507096 C36,27.2355991 33.987344,29.25 31.5133644,29.25 L4.48663563,29.25 C2.00873519,29.25 6.70728899e-10,27.2357458 1.49793777e-09,24.7507096 L6.36672158e-09,10.1242904 L6.36672158e-09,10.1242904 Z" id="Shape" sketch:type="MSShapeGroup"></path>
                <path d="M18,23.0625 C14.2720703,23.0625 11.25,20.0404297 11.25,16.3125 C11.25,12.5845703 14.2720703,9.5625 18,9.5625 C21.7265064,9.5625 24.75,12.585397 24.75,16.3125 C24.75,20.039603 21.7265064,23.0625 18,23.0625 L18,23.0625 Z M18,25.3125 C22.9690477,25.3125 27,21.2823431 27,16.3125 C27,11.3426569 22.9690477,7.3125 18,7.3125 C13.0294297,7.3125 9,11.3419297 9,16.3125 C9,21.2830703 13.0294297,25.3125 18,25.3125 L18,25.3125 Z" id="Shape" sketch:type="MSShapeGroup"></path>
                <path d="M29.53125,10.125 C28.7521875,10.125 28.125,10.755 28.125,11.53125 C28.125,12.3075 28.7521875,12.9375 29.53125,12.9375 C30.3075,12.9375 30.9375,12.3075 30.9375,11.53125 C30.9375,10.755 30.3075,10.125 29.53125,10.125" id="Fill-3044" sketch:type="MSShapeGroup"></path>
            </g>
        </g>
    </g>
</svg>
