<svg width="420px" height="60px" viewBox="0 0 420 60" version="1.1" xmlns="http://www.w3.org/2000/svg">
    <defs></defs>
    <g id="Page-1" stroke="none" stroke-width="1" fill="none" fill-rule="evenodd">
        <g id="Desktop-HD" transform="translate(-472.000000, -681.000000)">
            <g id="Imported-Layers" transform="translate(472.000000, 681.000000)">
                <path d="M272.784211,16.3115789 L269.196842,16.3115789 C268.793684,16.3115789 268.421053,15.98 268.421053,15.5726316 L268.421053,12.32 C268.421053,11.9136842 268.793684,11.5789474 269.196842,11.5789474 L272.784211,11.5789474 C273.193684,11.5789474 273.524211,11.9136842 273.524211,12.32 L273.524211,15.5726316 C273.524211,15.98 273.193684,16.3115789 272.784211,16.3115789 L272.784211,16.3115789 Z M272.672632,39.9294737 L269.270526,39.9294737 C268.867368,39.9294737 268.532632,39.5642105 268.532632,39.1568421 L268.532632,19.8231579 C268.532632,19.4168421 268.867368,19.0852632 269.270526,19.0852632 L272.672632,19.0852632 C273.082105,19.0852632 273.411579,19.4168421 273.411579,19.8231579 L273.411579,39.1568421 C273.411579,39.5642105 273.082105,39.9294737 272.672632,39.9294737 L272.672632,39.9294737 Z" id="Fill-1" fill="#333F48"></path>
                <path d="M79.4757895,22.7452632 C77.4705263,22.7452632 75.9147368,23.2736842 74.36,24.0757895 L74.36,38.9578947 C74.36,39.3631579 74.0294737,39.7284211 73.6189474,39.7284211 L70.2136842,39.7284211 C69.8115789,39.7284211 69.4736842,39.3631579 69.4736842,38.9578947 L69.4736842,19.6105263 C69.4736842,19.1947368 69.8115789,18.8578947 70.2136842,18.8578947 L73.4389474,18.8578947 C73.84,18.8578947 74.18,19.1947368 74.18,19.6105263 L74.18,20.3747368 C75.9831579,18.9747368 77.9852632,18.5989474 79.4757895,18.5989474 C79.8726316,18.5989474 80.2157895,18.9357895 80.2157895,19.34 L80.2157895,22.0084211 C80.2157895,22.4168421 79.8726316,22.7452632 79.4757895,22.7452632 L79.4757895,22.7452632 Z M98.0421053,31.0052632 L85.9842105,31.0052632 L85.9842105,31.1105263 C85.9842105,33.2578947 86.8726316,35.8094737 90.4221053,35.8094737 C93.1221053,35.8094737 95.6747368,35.5894737 97.2252632,35.4389474 L97.3410526,35.4389474 C97.7136842,35.4389474 98.0084211,35.6357895 98.0084211,36 L98.0084211,38.4357895 C98.0084211,39.0252632 97.8989474,39.2926316 97.2252632,39.4 C94.8305263,39.8378947 93.3757895,40.0347368 90.0515789,40.0347368 C86.3505263,40.0347368 81.0894737,38.0336842 81.0894737,30.7378947 L81.0894737,28.0031579 C81.0894737,22.2242105 84.3126316,18.5989474 89.9778947,18.5989474 C95.6747368,18.5989474 98.7926316,22.4915789 98.7926316,28.0031579 L98.7926316,30.0736842 C98.7926316,30.6663158 98.5684211,31.0052632 98.0421053,31.0052632 L98.0421053,31.0052632 Z M93.8652632,27.3663158 C93.8652632,24.4852632 92.2673684,22.82 89.9778947,22.82 C87.6863158,22.82 86.02,24.4431579 86.02,27.3663158 L86.02,27.5284211 L93.8652632,27.5284211 L93.8652632,27.3663158 L93.8652632,27.3663158 Z M115.782105,39.7284211 L112.623158,39.7284211 C112.226316,39.7284211 111.883158,39.4 111.883158,38.9947368 L111.883158,38.4 C110.187368,39.4305263 108.446316,40.0347368 106.667368,40.0347368 C103.607368,40.0347368 100.266316,38.8421053 100.266316,33.8452632 L100.266316,33.7021053 C100.266316,29.4852632 102.855789,27.2947368 109.301053,27.2947368 L111.629474,27.2947368 L111.629474,25.6726316 C111.629474,23.2736842 110.553684,22.6736842 108.376842,22.6736842 C106.006316,22.6736842 103.564211,22.82 102.34,22.9715789 L102.153684,22.9715789 C101.781053,22.9715789 101.492632,22.8526316 101.492632,22.3357895 L101.492632,19.9684211 C101.492632,19.56 101.711579,19.3073684 102.193684,19.1947368 C103.673684,18.8968421 105.813684,18.5989474 108.376842,18.5989474 C113.630526,18.5989474 116.513684,20.9336842 116.513684,25.6726316 L116.513684,38.9947368 C116.513684,39.4 116.175789,39.7284211 115.782105,39.7284211 L115.782105,39.7284211 Z M111.629474,30.5578947 L109.301053,30.5578947 C105.931579,30.5578947 105.194737,31.6294737 105.194737,33.7021053 L105.194737,33.8452632 C105.194737,35.6673684 106.006316,36.1421053 107.853684,36.1421053 C109.182105,36.1421053 110.553684,35.7 111.629474,35.1042105 L111.629474,30.5578947 L111.629474,30.5578947 Z M123.274737,39.7284211 L119.837895,39.7284211 C119.426316,39.7284211 119.093684,39.3631579 119.093684,38.9578947 L119.093684,12.3126316 C119.093684,11.9010526 119.426316,11.5789474 119.837895,11.5789474 L123.274737,11.5789474 C123.68,11.5789474 123.977895,11.9010526 123.977895,12.3126316 L123.977895,38.9578947 C123.977895,39.3631579 123.68,39.7284211 123.274737,39.7284211 L123.274737,39.7284211 Z" id="Fill-2" fill="#333F48"></path>
                <path d="M249.656842,23.0936842 C247.652632,23.0936842 246.095789,23.6221053 244.542105,24.4242105 L244.542105,39.3063158 C244.542105,39.7115789 244.210526,40.0768421 243.8,40.0768421 L240.394737,40.0768421 C239.992632,40.0768421 239.654737,39.7115789 239.654737,39.3063158 L239.654737,19.9589474 C239.654737,19.5431579 239.992632,19.2063158 240.394737,19.2063158 L243.621053,19.2063158 C244.022105,19.2063158 244.361053,19.5431579 244.361053,19.9589474 L244.361053,20.7231579 C246.164211,19.3231579 248.166316,18.9473684 249.656842,18.9473684 C250.053684,18.9473684 250.396842,19.2842105 250.396842,19.6884211 L250.396842,22.3568421 C250.396842,22.7652632 250.053684,23.0936842 249.656842,23.0936842 L249.656842,23.0936842 Z M236.953684,31.3536842 L224.895789,31.3536842 L224.895789,31.4589474 C224.895789,33.6063158 225.784211,36.1578947 229.332632,36.1578947 C232.031579,36.1578947 234.585263,35.9378947 236.135789,35.7873684 L236.252632,35.7873684 C236.624211,35.7873684 236.918947,35.9842105 236.918947,36.3484211 L236.918947,38.7842105 C236.918947,39.3736842 236.809474,39.6410526 236.135789,39.7484211 C233.74,40.1863158 232.286316,40.3831579 228.962105,40.3831579 C225.262105,40.3831579 220,38.3821053 220,31.0863158 L220,28.3515789 C220,22.5726316 223.224211,18.9473684 228.888421,18.9473684 C234.585263,18.9473684 237.704211,22.84 237.704211,28.3515789 L237.704211,30.4221053 C237.704211,31.0147368 237.48,31.3536842 236.953684,31.3536842 L236.953684,31.3536842 Z M232.775789,27.7147368 C232.775789,24.8336842 231.178947,23.1684211 228.888421,23.1684211 C226.595789,23.1684211 224.930526,24.7915789 224.930526,27.7147368 L224.930526,27.8768421 L232.775789,27.8768421 L232.775789,27.7147368 L232.775789,27.7147368 Z" id="Fill-3" fill="#333F48"></path>
                <path d="M290.252632,39.7284211 L287.092632,39.7284211 C286.695789,39.7284211 286.352632,39.4 286.352632,38.9947368 L286.352632,38.4 C284.656842,39.4305263 282.916842,40.0347368 281.136842,40.0347368 C278.077895,40.0347368 274.736842,38.8421053 274.736842,33.8452632 L274.736842,33.7021053 C274.736842,29.4852632 277.325263,27.2947368 283.770526,27.2947368 L286.1,27.2947368 L286.1,25.6726316 C286.1,23.2736842 285.024211,22.6736842 282.847368,22.6736842 C280.476842,22.6736842 278.034737,22.82 276.811579,22.9715789 L276.624211,22.9715789 C276.251579,22.9715789 275.962105,22.8526316 275.962105,22.3357895 L275.962105,19.9684211 C275.962105,19.56 276.182105,19.3073684 276.663158,19.1947368 C278.143158,18.8968421 280.284211,18.5989474 282.847368,18.5989474 C288.1,18.5989474 290.984211,20.9336842 290.984211,25.6726316 L290.984211,38.9947368 C290.984211,39.4 290.645263,39.7284211 290.252632,39.7284211 L290.252632,39.7284211 Z M286.1,30.5578947 L283.770526,30.5578947 C280.401053,30.5578947 279.665263,31.6294737 279.665263,33.7021053 L279.665263,33.8452632 C279.665263,35.6673684 280.476842,36.1421053 282.323158,36.1421053 C283.653684,36.1421053 285.024211,35.7 286.1,35.1042105 L286.1,30.5578947 L286.1,30.5578947 Z M297.744211,39.7284211 L294.307368,39.7284211 C293.895789,39.7284211 293.563158,39.3631579 293.563158,38.9578947 L293.563158,12.3126316 C293.563158,11.9010526 293.895789,11.5789474 294.307368,11.5789474 L297.744211,11.5789474 C298.149474,11.5789474 298.447368,11.9010526 298.447368,12.3126316 L298.447368,38.9578947 C298.447368,39.3631579 298.149474,39.7284211 297.744211,39.7284211 L297.744211,39.7284211 Z" id="Fill-4" fill="#333F48"></path>
                <path d="M305.082105,40.0768421 L301.792632,40.0768421 C301.378947,40.0768421 301.052632,39.7484211 301.052632,39.3431579 L301.052632,35.1621053 C301.052632,34.7589474 301.378947,34.4589474 301.792632,34.4589474 L305.082105,34.4589474 C305.491579,34.4589474 305.82,34.7589474 305.82,35.1621053 L305.82,39.3431579 C305.82,39.7484211 305.491579,40.0768421 305.082105,40.0768421 L305.082105,40.0768421 Z M320.330526,39.8957895 C319.471579,40.12 317.806316,40.3831579 315.558947,40.3831579 C310.746316,40.3831579 307.121053,37.42 307.121053,31.3905263 L307.121053,27.9421053 C307.121053,21.9147368 310.746316,18.9473684 315.558947,18.9473684 C317.806316,18.9473684 319.471579,19.2063158 320.330526,19.4294737 C320.962105,19.58 321.103158,19.8042105 321.103158,20.3957895 L321.103158,22.8021053 C321.103158,23.1684211 320.813684,23.3557895 320.435789,23.3557895 L320.330526,23.3557895 C318.852632,23.1684211 317.966316,23.0936842 315.558947,23.0936842 C313.815789,23.0936842 311.997895,24.0915789 311.997895,27.9421053 L311.997895,31.3905263 C311.997895,35.2326316 313.815789,36.2378947 315.558947,36.2378947 C317.966316,36.2378947 318.852632,36.1578947 320.330526,35.9842105 L320.435789,35.9842105 C320.813684,35.9842105 321.103158,36.1578947 321.103158,36.5252632 L321.103158,38.9315789 C321.103158,39.5263158 320.962105,39.7484211 320.330526,39.8957895 L320.330526,39.8957895 Z M331.728421,40.3831579 C325.925263,40.3831579 322.886316,36.4473684 322.886316,31.1610526 L322.886316,28.1642105 C322.886316,22.8778947 325.925263,18.9473684 331.728421,18.9473684 C337.541053,18.9473684 340.563158,22.8778947 340.563158,28.1642105 L340.563158,31.1610526 C340.563158,36.4473684 337.541053,40.3831579 331.728421,40.3831579 L331.728421,40.3831579 Z M335.690526,28.1642105 C335.690526,25.1336842 334.316842,23.1684211 331.728421,23.1684211 C329.133684,23.1684211 327.769474,25.1336842 327.769474,28.1642105 L327.769474,31.1610526 C327.769474,34.1936842 329.133684,36.1578947 331.728421,36.1578947 C334.316842,36.1578947 335.690526,34.1936842 335.690526,31.1610526 L335.690526,28.1642105 L335.690526,28.1642105 Z M368.521053,40.0768421 L365.112632,40.0768421 C364.709474,40.0768421 364.370526,39.7115789 364.370526,39.3063158 L364.370526,26.7284211 C364.370526,23.8768421 363.776842,23.1347368 361.704211,23.1347368 C361.005263,23.1347368 359.598947,23.3557895 358.264211,24.0536842 C358.375789,24.8726316 358.412632,25.7957895 358.412632,26.7284211 L358.412632,39.3063158 C358.412632,39.7115789 358.083158,40.0768421 357.672632,40.0768421 L354.267368,40.0768421 C353.861053,40.0768421 353.529474,39.7115789 353.529474,39.3063158 L353.529474,26.7284211 C353.529474,23.8768421 353.042105,23.1347368 350.971579,23.1347368 C350.194737,23.1347368 349.083158,23.5389474 347.567368,24.3557895 L347.567368,39.3063158 C347.567368,39.7115789 347.234737,40.0768421 346.825263,40.0768421 L343.423158,40.0768421 C343.011579,40.0768421 342.684211,39.7115789 342.684211,39.3063158 L342.684211,19.9589474 C342.684211,19.5431579 343.011579,19.2063158 343.423158,19.2063158 L346.648421,19.2063158 C347.049474,19.2063158 347.382105,19.5431579 347.382105,19.9589474 L347.382105,20.7231579 C348.938947,19.7273684 350.492632,18.9473684 352.678947,18.9473684 C354.789474,18.9473684 356.156842,19.58 357.010526,20.6136842 C358.891579,19.58 360.556842,18.9473684 363.108421,18.9473684 C368.134737,18.9473684 369.257895,22.3957895 369.257895,26.7284211 L369.257895,39.3063158 C369.257895,39.7115789 368.924211,40.0768421 368.521053,40.0768421 L368.521053,40.0768421 Z M375.396842,40.0768421 L372.105263,40.0768421 C371.695789,40.0768421 371.361053,39.7484211 371.361053,39.3431579 L371.361053,35.1621053 C371.361053,34.7589474 371.695789,34.4589474 372.105263,34.4589474 L375.396842,34.4589474 C375.798947,34.4589474 376.143158,34.7589474 376.143158,35.1621053 L376.143158,39.3431579 C376.143158,39.7484211 375.798947,40.0768421 375.396842,40.0768421 L375.396842,40.0768421 Z M393.391579,40.0768421 L390.237895,40.0768421 C389.831579,40.0768421 389.506316,39.7484211 389.506316,39.3431579 L389.506316,38.7484211 C387.802105,39.7789474 386.062105,40.3831579 384.284211,40.3831579 C381.210526,40.3831579 377.882105,39.1905263 377.882105,34.1936842 L377.882105,34.0505263 C377.882105,29.8336842 380.472632,27.6431579 386.917895,27.6431579 L389.241053,27.6431579 L389.241053,26.0210526 C389.241053,23.6221053 388.177895,23.0221053 385.986316,23.0221053 C383.607368,23.0221053 381.175789,23.1684211 379.948421,23.32 L379.771579,23.32 C379.401053,23.32 379.103158,23.2010526 379.103158,22.6842105 L379.103158,20.3168421 C379.103158,19.9084211 379.327368,19.6557895 379.806316,19.5431579 C381.290526,19.2452632 383.434737,18.9473684 385.986316,18.9473684 C391.236842,18.9473684 394.131579,21.2821053 394.131579,26.0210526 L394.131579,39.3431579 C394.131579,39.7484211 393.794737,40.0768421 393.391579,40.0768421 L393.391579,40.0768421 Z M389.241053,30.9063158 L386.917895,30.9063158 C383.546316,30.9063158 382.802105,31.9778947 382.802105,34.0505263 L382.802105,34.1936842 C382.802105,36.0157895 383.607368,36.4905263 385.462105,36.4905263 C386.807368,36.4905263 388.177895,36.0484211 389.241053,35.4526316 L389.241053,30.9063158 L389.241053,30.9063158 Z" id="Fill-5" fill="#333F48"></path>
                <path d="M264.788421,39.8957895 C263.928421,40.12 262.263158,40.3831579 260.016842,40.3831579 C255.204211,40.3831579 251.578947,37.42 251.578947,31.3905263 L251.578947,27.9421053 C251.578947,21.9147368 255.204211,18.9473684 260.016842,18.9473684 C262.263158,18.9473684 263.928421,19.2063158 264.788421,19.4294737 C265.42,19.58 265.561053,19.8042105 265.561053,20.3957895 L265.561053,22.8021053 C265.561053,23.1684211 265.271579,23.3557895 264.893684,23.3557895 L264.788421,23.3557895 C263.310526,23.1684211 262.424211,23.0936842 260.016842,23.0936842 C258.272632,23.0936842 256.455789,24.0915789 256.455789,27.9421053 L256.455789,31.3905263 C256.455789,35.2326316 258.272632,36.2378947 260.016842,36.2378947 C262.424211,36.2378947 263.310526,36.1578947 264.788421,35.9842105 L264.893684,35.9842105 C265.271579,35.9842105 265.561053,36.1578947 265.561053,36.5252632 L265.561053,38.9315789 C265.561053,39.5263158 265.42,39.7484211 264.788421,39.8957895" id="Fill-6" fill="#333F48"></path>
                <path d="M140.577895,39.8957895 C139.717895,40.12 138.052632,40.3831579 135.805263,40.3831579 C130.992632,40.3831579 127.368421,37.42 127.368421,31.3905263 L127.368421,27.9421053 C127.368421,21.9147368 130.992632,18.9473684 135.805263,18.9473684 C138.052632,18.9473684 139.717895,19.2063158 140.577895,19.4294737 C141.208421,19.58 141.350526,19.8042105 141.350526,20.3957895 L141.350526,22.8021053 C141.350526,23.1684211 141.06,23.3557895 140.682105,23.3557895 L140.577895,23.3557895 C139.098947,23.1684211 138.212632,23.0936842 135.805263,23.0936842 C134.062105,23.0936842 132.244211,24.0915789 132.244211,27.9421053 L132.244211,31.3905263 C132.244211,35.2326316 134.062105,36.2378947 135.805263,36.2378947 C138.212632,36.2378947 139.098947,36.1578947 140.577895,35.9842105 L140.682105,35.9842105 C141.06,35.9842105 141.350526,36.1578947 141.350526,36.5252632 L141.350526,38.9315789 C141.350526,39.5263158 141.208421,39.7484211 140.577895,39.8957895 L140.577895,39.8957895 Z M151.975789,40.3831579 C146.171579,40.3831579 143.132632,36.4473684 143.132632,31.1610526 L143.132632,28.1642105 C143.132632,22.8778947 146.171579,18.9473684 151.975789,18.9473684 C157.787368,18.9473684 160.809474,22.8778947 160.809474,28.1642105 L160.809474,31.1610526 C160.809474,36.4473684 157.787368,40.3831579 151.975789,40.3831579 L151.975789,40.3831579 Z M155.936842,28.1642105 C155.936842,25.1336842 154.564211,23.1684211 151.975789,23.1684211 C149.381053,23.1684211 148.015789,25.1336842 148.015789,28.1642105 L148.015789,31.1610526 C148.015789,34.1936842 149.381053,36.1578947 151.975789,36.1578947 C154.564211,36.1578947 155.936842,34.1936842 155.936842,31.1610526 L155.936842,28.1642105 L155.936842,28.1642105 Z M188.768421,40.0768421 L185.358947,40.0768421 C184.956842,40.0768421 184.616842,39.7115789 184.616842,39.3063158 L184.616842,26.7284211 C184.616842,23.8768421 184.023158,23.1347368 181.950526,23.1347368 C181.251579,23.1347368 179.845263,23.3557895 178.511579,24.0536842 C178.622105,24.8726316 178.658947,25.7957895 178.658947,26.7284211 L178.658947,39.3063158 C178.658947,39.7115789 178.330526,40.0768421 177.918947,40.0768421 L174.514737,40.0768421 C174.107368,40.0768421 173.776842,39.7115789 173.776842,39.3063158 L173.776842,26.7284211 C173.776842,23.8768421 173.289474,23.1347368 171.218947,23.1347368 C170.442105,23.1347368 169.329474,23.5389474 167.814737,24.3557895 L167.814737,39.3063158 C167.814737,39.7115789 167.481053,40.0768421 167.071579,40.0768421 L163.669474,40.0768421 C163.257895,40.0768421 162.931579,39.7115789 162.931579,39.3063158 L162.931579,19.9589474 C162.931579,19.5431579 163.257895,19.2063158 163.669474,19.2063158 L166.894737,19.2063158 C167.295789,19.2063158 167.629474,19.5431579 167.629474,19.9589474 L167.629474,20.7231579 C169.185263,19.7273684 170.74,18.9473684 172.925263,18.9473684 C175.036842,18.9473684 176.404211,19.58 177.256842,20.6136842 C179.137895,19.58 180.803158,18.9473684 183.354737,18.9473684 C188.382105,18.9473684 189.504211,22.3957895 189.504211,26.7284211 L189.504211,39.3063158 C189.504211,39.7115789 189.171579,40.0768421 188.768421,40.0768421 L188.768421,40.0768421 Z M217.886316,40.0768421 L214.477895,40.0768421 C214.074737,40.0768421 213.735789,39.7115789 213.735789,39.3063158 L213.735789,26.7284211 C213.735789,23.8768421 213.142105,23.1347368 211.069474,23.1347368 C210.369474,23.1347368 208.963158,23.3557895 207.629474,24.0536842 C207.74,24.8726316 207.776842,25.7957895 207.776842,26.7284211 L207.776842,39.3063158 C207.776842,39.7115789 207.448421,40.0768421 207.036842,40.0768421 L203.632632,40.0768421 C203.225263,40.0768421 202.894737,39.7115789 202.894737,39.3063158 L202.894737,26.7284211 C202.894737,23.8768421 202.407368,23.1347368 200.336842,23.1347368 C199.56,23.1347368 198.447368,23.5389474 196.932632,24.3557895 L196.932632,39.3063158 C196.932632,39.7115789 196.598947,40.0768421 196.190526,40.0768421 L192.787368,40.0768421 C192.375789,40.0768421 192.049474,39.7115789 192.049474,39.3063158 L192.049474,19.9589474 C192.049474,19.5431579 192.375789,19.2063158 192.787368,19.2063158 L196.012632,19.2063158 C196.413684,19.2063158 196.747368,19.5431579 196.747368,19.9589474 L196.747368,20.7231579 C198.303158,19.7273684 199.857895,18.9473684 202.043158,18.9473684 C204.154737,18.9473684 205.522105,19.58 206.374737,20.6136842 C208.255789,19.58 209.921053,18.9473684 212.473684,18.9473684 C217.5,18.9473684 218.622105,22.3957895 218.622105,26.7284211 L218.622105,39.3063158 C218.622105,39.7115789 218.289474,40.0768421 217.886316,40.0768421 L217.886316,40.0768421 Z" id="Fill-7" fill="#333F48"></path>
                <path d="M30,60 C46.5685425,60 60,46.5685425 60,30 C60,13.4314575 46.5685425,0 30,0 C13.4314575,0 0,13.4314575 0,30 C0,46.5685425 13.4314575,60 30,60 Z" id="Oval-2" fill="#005EB6"></path>
                <path d="M50.1421053,25.4126316 L50.1421053,25.4084211 L32.4547368,7.80421053 C32.0105263,7.30105263 31.3505263,7 30.6210526,7 C29.9010526,7 29.2473684,7.30105263 28.7873684,7.80421053 L11.0978947,25.4084211 L11.0978947,25.4126316 C10.42,26.1031579 10,27.0515789 10,28.1 C10,30.2052632 11.7,31.9147368 13.8157895,31.9147368 L16.2336842,31.9147368 L16.2336842,45.3178947 C16.2336842,46.6905263 17.34,47.8052632 18.7252632,47.8136842 L42.5210526,47.8136842 C43.9042105,47.8052632 45.0063158,46.6905263 45.0063158,45.3178947 C45.0063158,45.2863158 45,31.9147368 45,31.9147368 L47.4389474,31.9147368 C49.5378947,31.9147368 51.2589474,30.2052632 51.2589474,28.1 C51.2589474,27.0515789 50.8210526,26.1031579 50.1421053,25.4126316 M15.8126316,27.3168421 L30.6357895,12.5673684 L45.4631579,27.3168421 L40.3557895,27.3231579 L40.3557895,43.1568421 L20.9084211,43.1568421 L20.9084211,27.3231579 L15.8126316,27.3168421" id="Fill-10" fill="#FFFFFF"></path>
                <path d="M413.201053,39.8178947 L409.790526,39.8178947 C409.389474,39.8178947 409.057895,39.4894737 409.057895,39.0842105 L409.057895,38.2284211 C407.131579,39.4894737 405.608421,40.0789474 403.246316,40.0789474 C401.393684,40.0789474 399.765263,39.6021053 398.688421,38.5252632 C397.318947,37.1621053 396.842105,34.8621053 396.842105,31.7978947 L396.842105,19.7305263 C396.842105,19.3221053 397.173684,18.9473684 397.58,18.9473684 L400.985263,18.9473684 C401.393684,18.9473684 401.727368,19.3221053 401.727368,19.7305263 L401.727368,31.7978947 C401.727368,33.6463158 401.874737,34.7105263 402.577895,35.3463158 C403.094737,35.7884211 403.729474,36.0084211 404.876842,36.0084211 C406.244211,36.0084211 408.017895,35.0957895 409.057895,34.5357895 L409.057895,19.7305263 C409.057895,19.3221053 409.389474,18.9473684 409.790526,18.9473684 L413.201053,18.9473684 C413.610526,18.9473684 413.941053,19.3221053 413.941053,19.7305263 L413.941053,39.0842105 C413.941053,39.4894737 413.610526,39.8178947 413.201053,39.8178947" id="Fill-11" fill="#333F48"></path>
                <path d="M417.052632,18.3926316 C415.726316,18.3926316 414.736842,17.3557895 414.736842,16.0421053 C414.736842,14.7284211 415.726316,13.6842105 417.052632,13.6842105 C418.38,13.6842105 419.365263,14.7210526 419.365263,16.0357895 C419.365263,17.3505263 418.38,18.3926316 417.052632,18.3926316 L417.052632,18.3926316 Z M417.052632,14.0936842 C415.918947,14.0936842 415.167368,14.92 415.167368,16.0421053 C415.167368,17.1631579 415.918947,17.9831579 417.052632,17.9831579 C418.187368,17.9831579 418.935789,17.1568421 418.935789,16.0357895 C418.935789,14.9136842 418.187368,14.0936842 417.052632,14.0936842 L417.052632,14.0936842 Z M417.570526,17.2263158 L417.163158,16.3221053 L416.68,16.3221053 L416.68,17.2263158 L416.252632,17.2263158 L416.252632,14.7715789 L417.154737,14.7715789 C417.622105,14.7715789 418.026316,15.0410526 418.026316,15.5410526 C418.026316,15.8610526 417.885263,16.1189474 417.582105,16.2536842 L418.041053,17.2263158 L417.570526,17.2263158 L417.570526,17.2263158 Z M417.154737,15.1705263 L416.673684,15.1705263 L416.673684,15.9273684 L417.154737,15.9273684 C417.409474,15.9273684 417.576842,15.8105263 417.576842,15.5410526 C417.576842,15.2915789 417.385263,15.1705263 417.154737,15.1705263 L417.154737,15.1705263 Z" id="Fill-12" fill="#333F48"></path>
            </g>
        </g>
    </g>
</svg>
