<?xml version="1.0" encoding="iso-8859-1"?>
<svg enable-background="new 0 0 512 512" version="1.1" viewBox="0 0 512 512" xml:space="preserve" xmlns="http://www.w3.org/2000/svg" xmlns:xlink="http://www.w3.org/1999/xlink">
  <polygon fill="#262f36" points="421.484,117.179 421.484,32.273 403.561,32.273 403.561,117.179 314.83,117.179 314.83,139.584 403.561,139.584 403.561,227.769 421.484,227.769 421.484,139.584 512,139.584 512,117.179  "/><path d="M285.447,29.073c-10.064,0-127.086,0-127.086,0s-128.67,3.154-128.67,112.092
  c0,108.919,112.487,96.296,112.487,96.296s0,16.491,0,27.629c0,11.156,15.095,7.403,16.969,30.001
  c-7.601,0-156.296-3.952-156.296,94.715c0,98.665,131.038,93.942,131.038,93.942s151.558,6.908,151.558-115.646
  c0-73.408-86.436-97.086-86.436-126.694c0-29.595,65.125-38.179,65.125-107.738c0-41.747-3.85-66.9-36.707-81.698
  C227.43,41.604,285.447,48.407,285.447,29.073z M244.605,376.526c2.594,38.272-37.846,72.159-90.31,75.713
  c-52.455,3.553-97.074-24.583-99.661-62.833c-2.598-38.266,37.82-72.158,90.275-75.711
  C197.378,310.141,242.01,338.271,244.605,376.526z M167.333,211.319c-31.247,8.496-66.215-20.091-78.117-63.847
  c-11.893-43.744,3.785-86.085,35.027-94.582c31.245-8.502,66.211,20.075,78.108,63.823
  C214.255,160.47,198.576,202.819,167.333,211.319z" fill="#414751"/>
</svg>
