<?xml version="1.0" encoding="UTF-8" standalone="no"?>
<svg width="16px" height="16px" viewBox="0 0 16 20" version="1.1" xmlns="http://www.w3.org/2000/svg" xmlns:xlink="http://www.w3.org/1999/xlink">
    <g id="02-Saved-Properties" stroke="none" stroke-width="1" fill="none" fill-rule="evenodd" stroke-linejoin="round">
        <g id="02-Saved-Properties---Desktop-HD--Account-Nav---Active" transform="translate(-1149.000000, -215.000000)" stroke="#333F48">
            <g id="dropdown" transform="translate(1118.000000, 65.000000)">
                <g id="account" transform="translate(32.000000, 151.000000)">
                    <g id="user">
                        <path d="M14,17.9999996 C13.9999995,16.5813353 14,16.7024991 14,14.720898 C14,14.1540993 12.5823603,12.8031742 9.28678147,11.590496 L9.28678147,9.1657807 C9.28678147,9.1657807 10.2955788,8.25563114 10.2955788,6.63915425 C10.7071995,6.63915425 11.1188202,5.0233183 10.2955788,4.6188786 C10.2955788,4.37916315 10.8785739,3.03215004 10.0553162,1.36126569 C9.08631178,-0.605426216 4.87198704,-0.259366479 4.17533985,1.24442583 C3.19252594,2.84930562 3.70442109,4.29135295 3.70442109,4.6188786 C2.88117974,5.0233183 3.29280042,6.63915425 3.70442109,6.63915425 C3.70442109,8.25563114 4.71321843,9.02669447 4.71321843,9.02669447 L4.71321843,11.590496 C1.41763957,12.8031742 1.39129768e-10,14.0944306 1.89699262e-08,14.7208978 C6.92211978e-08,16.3926685 4.08562073e-14,17.9999996 4.08562073e-14,17.9999996 L6.99999995,18 L14,17.9999996 Z" id="Stroke-2439"></path>
                    </g>
                </g>
            </g>
        </g>
    </g>
</svg>
