<svg xmlns="http://www.w3.org/2000/svg" width="24px" height="24px" viewBox="0 0 24 24">
    <g fill="#697684" fill-rule="nonzero">
        <path d="M18.246 18.068c-.648-.225-1.189-.423-3.406-1.246l.217.312v-2.809l-.109.247c.168-.154.407-.435.643-.84.39-.67.624-1.452.624-2.334l-.333.334c.988 0 1.26-2.421.148-2.973l-.148.299h.333c0-.009.09-.396.108-.485.233-1.13.17-2.231-.417-3.435-1.167-2.39-6.37-2.27-7.354-.128-.717 1.178-.84 2.31-.643 3.575.013.085.054.327.053.32.013.085.02.133.02.153l.185-.299c-1.112.552-.84 2.973.148 2.973l-.334-.334c0 .885.237 1.64.631 2.264.24.378.484.632.657.766l-.13-.264v2.97l.218-.312c-1.837.681-2.614.953-3.496 1.234a75.362 75.362 0 0 0-2.34.772.333.333 0 0 0 .217.63 73.561 73.561 0 0 1 2.288-.755c.93-.296 1.717-.571 3.563-1.256a.333.333 0 0 0 .217-.313v-2.97c0-.103-.048-.2-.13-.264-.116-.09-.306-.288-.5-.595-.33-.52-.528-1.153-.528-1.907a.333.333 0 0 0-.333-.333c-.22 0-.382-1.446.148-1.708a.333.333 0 0 0 .185-.299c0-.068-.009-.14-.028-.26l-.053-.315c-.174-1.125-.068-2.105.573-3.161.769-1.669 5.248-1.771 6.166.109.515 1.054.57 2.01.364 3.008.008-.035-.121.521-.121.619 0 .127.071.242.185.299.53.262.367 1.708.148 1.708a.333.333 0 0 0-.333.333 3.921 3.921 0 0 1-.899 2.518c-.071.084-.125.14-.15.163a.333.333 0 0 0-.11.246v2.809c0 .14.087.264.218.313 2.223.825 2.765 1.024 3.371 1.234l.05.017c.192.066 1.527.518 2.234.76a.333.333 0 1 0 .216-.63c-.71-.243-2.043-.695-2.233-.76z"/>
        <path d="M12 23.667c6.443 0 11.667-5.224 11.667-11.667S18.443.333 12 .333.333 5.557.333 12 5.557 23.667 12 23.667zM12 23C5.925 23 1 18.075 1 12S5.925 1 12 1s11 4.925 11 11-4.925 11-11 11z"/>
    </g>
</svg>
