<?xml version="1.0" encoding="UTF-8"?>
<svg width="16px" height="16px" viewBox="0 0 16 16" version="1.1" xmlns="http://www.w3.org/2000/svg">
    <g id="Page-1" stroke="none" stroke-width="1" fill="none" fill-rule="evenodd">
        <g id="tags" fill-rule="nonzero" fill="#231F1F">
            <path d="M15.4084964,9.71499481 L11.1783029,11.0068658 C11.0961995,11.0319396 11.0319396,11.0961995 11.0068658,11.1783029 L9.71499481,15.4084964 L10.1452697,15.3023812 L0.699592267,5.75399408 L0.774193547,5.93548388 L0.774193547,0.516129033 L0.516129033,0.774193547 L5.93548388,0.774193547 L5.75399408,0.699592267 L15.3023812,10.1452697 L15.4084964,9.71499481 L15.4084964,9.71499481 Z M15.5592455,10.2086181 C15.7460526,10.1515685 15.8042206,9.91570938 15.6653607,9.77834322 L6.11697362,0.332665796 C6.06865983,0.284871699 6.00344339,0.258064516 5.93548388,0.258064516 L0.516129033,0.258064516 C0.373603936,0.258064516 0.258064516,0.373603936 0.258064516,0.516129033 L0.258064516,5.93548388 C0.258064516,6.00344339 0.284871699,6.06865983 0.332665796,6.11697362 L9.77834322,15.6653607 C9.91570938,15.8042206 10.1515685,15.7460526 10.2086181,15.5592455 L11.5004891,11.3290519 L11.3290519,11.5004891 L15.5592455,10.2086181 L15.5592455,10.2086181 Z" id="Shape"></path>
            <path d="M4.40980645,3.36567742 C4.40980645,3.94212006 3.94263619,4.40929032 3.36619355,4.40929032 C2.7897509,4.40929032 2.32258064,3.94212006 2.32258064,3.36567742 C2.32258064,2.7893649 2.78962074,2.32258064 3.36619355,2.32258064 C3.94276636,2.32258064 4.40980645,2.7893649 4.40980645,3.36567742 L4.40980645,3.36567742 Z M4.92593547,3.36567742 C4.92593547,2.50425138 4.22775326,1.80645161 3.36619355,1.80645161 C2.50463384,1.80645161 1.80645161,2.50425138 1.80645161,3.36567742 C1.80645161,4.22717026 2.50470071,4.92541935 3.36619355,4.92541935 C4.22768639,4.92541935 4.92593547,4.22717026 4.92593547,3.36567742 L4.92593547,3.36567742 Z" id="Shape"></path>
        </g>
    </g>
</svg>
