<svg width="16" height="16" viewBox="0 -2 15 14" version="1.1" xmlns="http://www.w3.org/2000/svg" xmlns:xlink="http://www.w3.org/1999/xlink">
  <defs></defs>
  <path d="M13.1396484,4.12597656 C13.422853,4.25293032 13.6523429,4.44824087 13.828125,4.71191406 C14.0039071,4.97558726 14.0917969,5.26855308 14.0917969,5.59082031 L14.0917969,8.57910156 C14.0917969,8.73535234 14.0600589,8.88427664 13.996582,9.02587891 C13.9331052,9.16748118 13.842774,9.29687441 13.7255859,9.4140625 C13.6181635,9.52148491 13.4912117,9.60449189 13.3447266,9.66308594 C13.1982415,9.72167998 13.0468758,9.75097656 12.890625,9.75097656 L12.890625,10.4541016 C12.890625,10.7763688 12.7709973,11.0522449 12.5317383,11.2817383 C12.2924793,11.5112316 12.0068376,11.6259766 11.6748047,11.6259766 L10.9130859,11.6259766 C10.581053,11.6259766 10.2978527,11.5112316 10.0634766,11.2817383 C9.82910039,11.0522449 9.71191406,10.7763688 9.71191406,10.4541016 L9.71191406,9.75097656 L5.02441406,9.75097656 L5.02441406,10.4394531 C5.02441406,10.771486 4.90722773,11.0522449 4.67285156,11.2817383 C4.43847539,11.5112316 4.1552751,11.6259766 3.82324219,11.6259766 L3.046875,11.6259766 C2.71484209,11.6259766 2.4316418,11.5112316 2.19726562,11.2817383 C1.96288945,11.0522449 1.84570312,10.771486 1.84570312,10.4394531 L1.84570312,9.70703125 C1.74804639,9.67773423 1.65527388,9.63867212 1.56738281,9.58984375 C1.47949175,9.54101538 1.40136753,9.48242222 1.33300781,9.4140625 C1.21581973,9.29687441 1.12792998,9.16748118 1.06933594,9.02587891 C1.01074189,8.88427664 0.981445312,8.73535234 0.981445312,8.57910156 L0.981445312,5.59082031 C0.981445312,5.27831875 1.06689368,4.98779431 1.23779297,4.71923828 C1.40869226,4.45068225 1.63574077,4.25293032 1.91894531,4.12597656 L2.51953125,1.38671875 C2.64648501,0.761715625 2.9565405,0.231935767 3.44970703,-0.202636719 C3.94287356,-0.637209204 4.63378462,-0.854492188 5.52246094,-0.854492188 L9.59472656,-0.854492188 C10.4638715,-0.854492188 11.1376929,-0.639650586 11.6162109,-0.209960938 C12.094729,0.219728711 12.3974603,0.751949951 12.5244141,1.38671875 L13.1396484,4.12597656 Z M3.38378906,1.57714844 L2.82714844,4.06738281 C2.9150395,4.08691416 3.02001892,4.10400383 3.14208984,4.11865234 C3.26416077,4.13330085 3.393554,4.15039053 3.53027344,4.16992187 C4.03808848,4.24804727 4.60937183,4.30664043 5.24414062,4.34570312 C5.87890942,4.38476582 6.58691016,4.40429687 7.36816406,4.40429687 C8.14941797,4.40429687 8.85986008,4.38476582 9.49951172,4.34570312 C10.1391634,4.30664043 10.7080053,4.24804727 11.2060547,4.16992187 C11.4501965,4.14062485 11.6552726,4.11132827 11.8212891,4.08203125 C11.9873055,4.05273423 12.1191401,4.02343765 12.2167969,3.99414062 L11.6601563,1.5625 C11.5722652,1.113279 11.3647477,0.744630347 11.0375977,0.456542969 C10.7104476,0.168455591 10.2294954,0.0244140625 9.59472656,0.0244140625 L5.52246094,0.0244140625 C4.85839512,0.0244140625 4.35791184,0.170896973 4.02099609,0.463867188 C3.68408035,0.756837402 3.47168013,1.12792744 3.38378906,1.57714844 Z M4.14550781,10.4394531 L4.14550781,9.75097656 L2.72460938,9.75097656 L2.72460938,10.4394531 C2.72460938,10.5273442 2.75634734,10.6005856 2.81982422,10.6591797 C2.8833011,10.7177737 2.95898394,10.7470703 3.046875,10.7470703 L3.82324219,10.7470703 C3.91113325,10.7470703 3.98681609,10.7177737 4.05029297,10.6591797 C4.11376985,10.6005856 4.14550781,10.5273442 4.14550781,10.4394531 Z M11.9970703,10.4541016 L11.9970703,9.75097656 L10.5908203,9.75097656 L10.5908203,10.4541016 C10.5908203,10.532227 10.6225583,10.6005856 10.6860352,10.6591797 C10.749512,10.7177737 10.8251949,10.7470703 10.9130859,10.7470703 L11.6748047,10.7470703 C11.7724614,10.7470703 11.8505856,10.7177737 11.9091797,10.6591797 C11.9677737,10.6005856 11.9970703,10.532227 11.9970703,10.4541016 Z M13.1982422,8.57910156 L13.1982422,5.59082031 C13.1982422,5.42480386 13.1469732,5.27587957 13.0444336,5.14404297 C12.941894,5.01220637 12.807618,4.92187524 12.6416016,4.87304687 L12.5097656,4.82910156 C12.3925775,4.85839858 12.2363291,4.89257793 12.0410156,4.93164062 C11.8457021,4.97070332 11.6064467,5.00976543 11.3232422,5.04882812 C10.8056615,5.11718784 10.2172885,5.17333962 9.55810547,5.21728516 C8.89892249,5.26123069 8.16894932,5.28320312 7.36816406,5.28320312 C6.56737881,5.28320312 5.83984702,5.26123069 5.18554688,5.21728516 C4.53124673,5.17333962 3.94043232,5.11718784 3.41308594,5.04882812 C3.18847544,5.0195311 2.99316489,4.99023452 2.82714844,4.9609375 C2.66113198,4.93164048 2.51953184,4.9023439 2.40234375,4.87304687 C2.24609297,4.92187524 2.11669973,5.01220637 2.01416016,5.14404297 C1.91162058,5.27587957 1.86035156,5.42480386 1.86035156,5.59082031 L1.86035156,8.57910156 C1.86035156,8.61816426 1.86767571,8.65478499 1.88232422,8.68896484 C1.89697273,8.7231447 1.91894517,8.75488267 1.94824219,8.78417969 C1.97753921,8.81347671 2.01171855,8.83544915 2.05078125,8.85009766 C2.08984395,8.86474617 2.13378882,8.87207031 2.18261719,8.87207031 L12.8759766,8.87207031 C12.9248049,8.87207031 12.9687498,8.86474617 13.0078125,8.85009766 C13.0468752,8.83544915 13.0810545,8.81347671 13.1103516,8.78417969 C13.1396486,8.75488267 13.161621,8.7231447 13.1762695,8.68896484 C13.190918,8.65478499 13.1982422,8.61816426 13.1982422,8.57910156 Z M3.60351562,6.1328125 C3.84765747,6.1328125 4.05517493,6.21826086 4.22607422,6.38916016 C4.39697351,6.56005945 4.48242188,6.7675769 4.48242188,7.01171875 C4.48242188,7.2558606 4.39697351,7.46337805 4.22607422,7.63427734 C4.05517493,7.80517664 3.84765747,7.890625 3.60351562,7.890625 C3.35937378,7.890625 3.15185632,7.80517664 2.98095703,7.63427734 C2.81005774,7.46337805 2.72460938,7.2558606 2.72460938,7.01171875 C2.72460938,6.7675769 2.81005774,6.56005945 2.98095703,6.38916016 C3.15185632,6.21826086 3.35937378,6.1328125 3.60351562,6.1328125 Z M11.4697266,6.1328125 C11.7138684,6.1328125 11.9213859,6.21826086 12.0922852,6.38916016 C12.2631844,6.56005945 12.3486328,6.7675769 12.3486328,7.01171875 C12.3486328,7.2558606 12.2631844,7.46337805 12.0922852,7.63427734 C11.9213859,7.80517664 11.7138684,7.890625 11.4697266,7.890625 C11.2255847,7.890625 11.0180673,7.80517664 10.847168,7.63427734 C10.6762687,7.46337805 10.5908203,7.2558606 10.5908203,7.01171875 C10.5908203,6.7675769 10.6762687,6.56005945 10.847168,6.38916016 C11.0180673,6.21826086 11.2255847,6.1328125 11.4697266,6.1328125 Z" id="" stroke="none" fill="#87919D" fill-rule="evenodd"></path>
</svg>
