<?xml version="1.0" encoding="UTF-8" standalone="no"?>
<svg width="18px" height="15px" viewBox="0 0 18 15" version="1.1" xmlns="http://www.w3.org/2000/svg" xmlns:xlink="http://www.w3.org/1999/xlink">
    <defs></defs>
    <g id="Symbols" stroke="none" stroke-width="1" fill="none" fill-rule="evenodd">
        <g id="Navigation-Mobile" transform="translate(-16.000000, -18.000000)" fill-rule="nonzero" fill="#697684">
            <g id="header_mobile">
                <g id="icon---menu" transform="translate(16.000000, 18.000000)">
                    <path d="M0.346153846,0.878528532 L17.6538462,0.878528532 C17.8450216,0.878528532 18,0.681863221 18,0.439264266 C18,0.196665311 17.8450216,0 17.6538462,0 L0.346153846,0 C0.154978356,0 0,0.196665311 0,0.439264266 C0,0.681863221 0.154978356,0.878528532 0.346153846,0.878528532 L0.346153846,0.878528532 Z" id="Shape"></path>
                    <path d="M0.346153846,7.80489316 L17.6538462,7.80489316 C17.8450216,7.80489316 18,7.60822785 18,7.36562889 C18,7.12302994 17.8450216,6.92636463 17.6538462,6.92636463 L0.346153846,6.92636463 C0.154978356,6.92636463 0,7.12302994 0,7.36562889 C0,7.60822785 0.154978356,7.80489316 0.346153846,7.80489316 L0.346153846,7.80489316 Z" id="Shape"></path>
                    <path d="M0.346153846,14.7312578 L17.6538462,14.7312578 C17.8450216,14.7312578 18,14.5345925 18,14.2919935 C18,14.0493946 17.8450216,13.8527293 17.6538462,13.8527293 L0.346153846,13.8527293 C0.154978356,13.8527293 0,14.0493946 0,14.2919935 C0,14.5345925 0.154978356,14.7312578 0.346153846,14.7312578 L0.346153846,14.7312578 Z" id="Shape"></path>
                </g>
            </g>
        </g>
    </g>
</svg>
