<?xml version="1.0" encoding="UTF-8" standalone="no"?>
<svg width="16px" height="16px" viewBox="0 0 15 20" version="1.1" xmlns="http://www.w3.org/2000/svg" xmlns:xlink="http://www.w3.org/1999/xlink">
    <g id="02-Saved-Properties" stroke="none" stroke-width="1" fill="none" fill-rule="evenodd">
        <g id="02-Saved-Properties---Desktop-HD--Account-Nav---Active" transform="translate(-1149.000000, -275.000000)">
            <g id="dropdown" transform="translate(1118.000000, 65.000000)">
                <g id="log-out" transform="translate(32.000000, 211.000000)">
                    <g id="icon---secured">
                        <path d="M7.42857143,11.1 C7.42857143,11.5968 7.01257143,12 6.5,12 C5.98742857,12 5.57142857,11.5968 5.57142857,11.1 C5.57142857,10.6032 5.98742857,10.2 6.5,10.2 C7.01257143,10.2 7.42857143,10.6032 7.42857143,11.1 L7.42857143,11.1 Z" id="Stroke-2828" stroke="#565F73" stroke-width="2" fill="#565F73"></path>
                        <path d="M5.57142857,11.4 L7.42857143,11.4 L7.42857143,14.0729105 C7.42857143,14.5849279 7.01641124,15 6.5,15 L6.5,15 C5.98716416,15 5.57142857,14.5870342 5.57142857,14.0729105 L5.57142857,11.4 Z" id="Rectangle-11" fill="#565F73"></path>
                        <path d="M12.6904762,9.49027657 C12.6904762,8.3907458 11.8000686,7.4994 10.6875019,7.4994 L2.31249812,7.4994 C1.20628595,7.4994 0.30952381,8.40458196 0.30952381,9.49027657 L0.30952381,15.7085234 C0.30952381,16.8080542 1.19993137,17.6994 2.31249812,17.6994 L10.6875019,17.6994 C11.793714,17.6994 12.6904762,16.794218 12.6904762,15.7085234 L12.6904762,9.49027657 Z" id="Stroke-2830" stroke="#565F73"></path>
                        <path d="M10.8333333,7.4994 L10.8333333,4.7994 C10.8333333,2.5014 8.97619048,0.2994 6.5,0.2994 C4.02380952,0.2994 2.16666667,2.5014 2.16666667,4.7994 L2.16666667,7.4994" id="Stroke-2831" stroke="#565F73"></path>
                    </g>
                </g>
            </g>
        </g>
    </g>
</svg>
