<svg xmlns="http://www.w3.org/2000/svg" width="14" height="14" viewBox="0 0 13 13">
    <g fill="#00BEB3" fill-rule="evenodd">
        <path d="M7.137 2.294H.275v10.431h10.43V5.863l-.548.549v5.764H.824V2.843h5.764l.55-.549z"/>
        <g fill-rule="nonzero">
            <path d="M4.19 9.215l-.391.13-.174-.174.13-.39 2.29-.764a2.25 2.25 0 0 0 .696-.43L12.37 1.96 11.01.6c.002.002-6.016 6.018-6.016 6.018l.133-.214-.938 2.812zm.416-2.986L10.623.212a.55.55 0 0 1 .775-.002l1.362 1.362a.549.549 0 0 1-.002.775L7.13 7.976a2.771 2.771 0 0 1-.91.562l-2.682.894 1.068-3.203z"/>
            <path d="M6.45 8.073l.194.194.388-.388-.194-.194-1.553-1.553-.194-.194-.388.388.194.194zM4.218 8.947l.194.194.388-.389-.194-.194-.194-.194-.194-.194-.389.388.194.194z"/>
            <path d="M11.982 1.376l.194-.194-.388-.388-.194.194L5.77 6.811l-.194.195.389.388.194-.194z"/>
        </g>
    </g>
</svg>
