<svg xmlns="http://www.w3.org/2000/svg" xmlns:xlink="http://www.w3.org/1999/xlink" width="40" height="40" viewBox="0 0 40 40">
  <defs>
    <polygon id="page-1-a" points="0 .152 0 20 39.698 20 39.698 .152"/>
    <polygon id="page-1-c" points=".698 .27 .698 1.27 .313 1.27 .313 .27 .698 .27"/>
    <polygon id="page-1-e" points=".698 .222 .698 1.222 .479 1.222 .479 .222 .698 .222"/>
    <polygon id="page-1-g" points=".698 .322 .698 1.322 .1 1.322 .1 .322 .698 .322"/>
    <polygon id="page-1-i" points="1.698 .38 1.698 1.379 .84 1.379 .84 .38 1.698 .38"/>
    <polygon id="page-1-k" points=".698 .18 .698 1.18 .596 1.18 .596 .18 .698 .18"/>
    <polygon id="page-1-m" points="1.698 .822 1.698 1.821 .965 1.821 .965 .822 1.698 .822"/>
    <polygon id="page-1-o" points=".698 .751 .698 1.751 .2 1.751 .2 .751 .698 .751"/>
    <polygon id="page-1-q" points=".698 .721 .698 1.721 .393 1.721 .393 .721 .698 .721"/>
    <polygon id="page-1-s" points=".698 .753 .698 1.753 .545 1.753 .545 .753 .698 .753"/>
    <polygon id="page-1-u" points=".698 .918 .698 1.918 .653 1.918 .653 .918 .698 .918"/>
    <polygon id="page-1-w" points=".698 .148 .698 1.148 .671 1.148 .671 .148 .698 .148"/>
  </defs>
  <g fill="none" fill-rule="evenodd">
    <g transform="translate(0 19.7)">
      <mask id="page-1-b" fill="#fff">
        <use xlink:href="#page-1-a"/>
      </mask>
      <path fill="#507C9A" d="M-0.0003,0.1516 C-0.0003,11.1136 8.8867,20.0006 19.8497,20.0006 C30.8117,20.0006 39.6977,11.1136 39.6977,0.1516 L-0.0003,0.1516" mask="url(#page-1-b)"/>
    </g>
    <g transform="translate(39 15.7)">
      <mask id="page-1-d" fill="#fff">
        <use xlink:href="#page-1-c"/>
      </mask>
      <path fill="#000" d="M0.3933,0.7209 C0.3673,0.5709 0.3423,0.4189 0.3133,0.2699 C0.3423,0.4189 0.3673,0.5709 0.3933,0.7209" mask="url(#page-1-d)"/>
    </g>
    <path fill="#000" d="M37.2146 10.2396C37.0946 10.0236 36.9726 9.8086 36.8446 9.5966 36.9726 9.8086 37.0946 10.0236 37.2146 10.2396M37.6443 11.0609C37.5413 10.8539 37.4373 10.6479 37.3283 10.4439 37.4383 10.6479 37.5413 10.8539 37.6443 11.0609M36.7409 9.431C36.6049 9.212 36.4679 8.994 36.3239 8.781 36.4689 8.995 36.6059 9.212 36.7409 9.431M38.0329 11.8968C37.9479 11.7038 37.8629 11.5108 37.7719 11.3208 37.8629 11.5108 37.9489 11.7048 38.0329 11.8968M38.6931 13.6234C38.6401 13.4634 38.5881 13.3024 38.5311 13.1444 38.5881 13.3034 38.6401 13.4634 38.6931 13.6234"/>
    <g transform="translate(39 16.7)">
      <mask id="page-1-f" fill="#fff">
        <use xlink:href="#page-1-e"/>
      </mask>
      <path fill="#000" d="M0.5456,0.7532 C0.5246,0.5752 0.5046,0.3982 0.4786,0.2222 C0.5046,0.3992 0.5246,0.5762 0.5456,0.7532" mask="url(#page-1-f)"/>
    </g>
    <path fill="#000" d="M38.3825,12.7503 C38.3145,12.5733 38.2465,12.3963 38.1745,12.2223 C38.2465,12.3973 38.3155,12.5733 38.3825,12.7503"/>
    <g transform="translate(39 14.7)">
      <mask id="page-1-h" fill="#fff">
        <use xlink:href="#page-1-g"/>
      </mask>
      <path fill="#000" d="M0.1999,0.7512 C0.1679,0.6072 0.1369,0.4642 0.0999,0.3222 C0.1369,0.4652 0.1679,0.6082 0.1999,0.7512" mask="url(#page-1-h)"/>
    </g>
    <g transform="translate(38 13.7)">
      <mask id="page-1-j" fill="#fff">
        <use xlink:href="#page-1-i"/>
      </mask>
      <path fill="#000" d="M0.9655,0.8215 C0.9245,0.6745 0.8845,0.5255 0.8395,0.3795 C0.8845,0.5265 0.9245,0.6745 0.9655,0.8215" mask="url(#page-1-j)"/>
    </g>
    <path fill="#000" d="M36.2214 8.6341C36.0744 8.4181 35.9234 8.2041 35.7674 7.9951 35.9244 8.2051 36.0744 8.4191 36.2214 8.6341M35.0329 7.0745C34.8719 6.8835 34.7099 6.6915 34.5419 6.5065 34.7109 6.6925 34.8729 6.8835 35.0329 7.0745M34.4333 6.3929C34.2523 6.1969 34.0703 6.0019 33.8813 5.8139L33.8823 5.8129C34.0723 6.0019 34.2523 6.1979 34.4333 6.3929"/>
    <g transform="translate(39 17.7)">
      <mask id="page-1-l" fill="#fff">
        <use xlink:href="#page-1-k"/>
      </mask>
      <path fill="#000" d="M0.653,0.9172 C0.637,0.6702 0.621,0.4242 0.596,0.1802 C0.621,0.4252 0.637,0.6712 0.653,0.9172" mask="url(#page-1-l)"/>
    </g>
    <path fill="#000" d="M35.653,7.848 C35.497,7.642 35.339,7.438 35.174,7.239 C35.34,7.439 35.497,7.643 35.653,7.848"/>
    <g transform="translate(38 13.7)">
      <mask id="page-1-n" fill="#fff">
        <use xlink:href="#page-1-m"/>
      </mask>
      <path fill="#000" d="M1.1003,1.3225 C1.0583,1.1545 1.0113,0.9875 0.9653,0.8215 C1.0113,0.9875 1.0583,1.1535 1.1003,1.3225" mask="url(#page-1-n)"/>
    </g>
    <g transform="translate(39 14.7)">
      <mask id="page-1-p" fill="#fff">
        <use xlink:href="#page-1-o"/>
      </mask>
      <path fill="#000" d="M0.3132,1.2698 C0.2792,1.0958 0.2392,0.9238 0.2002,0.7508 C0.2392,0.9238 0.2782,1.0948 0.3132,1.2698" mask="url(#page-1-p)"/>
    </g>
    <g transform="translate(39 15.7)">
      <mask id="page-1-r" fill="#fff">
        <use xlink:href="#page-1-q"/>
      </mask>
      <path fill="#000" d="M0.4782,1.2219 C0.4542,1.0549 0.4222,0.8879 0.3932,0.7209 C0.4222,0.8879 0.4542,1.0539 0.4782,1.2219" mask="url(#page-1-r)"/>
    </g>
    <g transform="translate(39 16.7)">
      <mask id="page-1-t" fill="#fff">
        <use xlink:href="#page-1-s"/>
      </mask>
      <path fill="#000" d="M0.5964,1.1799 C0.5824,1.0369 0.5634,0.8959 0.5454,0.7529 C0.5634,0.8959 0.5824,1.0369 0.5964,1.1799" mask="url(#page-1-t)"/>
    </g>
    <g transform="translate(39 17.7)">
      <mask id="page-1-v" fill="#fff">
        <use xlink:href="#page-1-u"/>
      </mask>
      <path fill="#000" d="M0.6696,1.1477 C0.6656,1.0717 0.6576,0.9947 0.6526,0.9177 C0.6576,0.9947 0.6656,1.0707 0.6696,1.1477" mask="url(#page-1-v)"/>
    </g>
    <path fill="#000" d="M38.8396 14.0784C38.7936 13.9264 38.7426 13.7744 38.6936 13.6234 38.7426 13.7744 38.7936 13.9264 38.8396 14.0784M35.1745 7.2386C35.1285 7.1826 35.0795 7.1296 35.0325 7.0746 35.0795 7.1296 35.1285 7.1826 35.1745 7.2386M35.7673 7.9954C35.7303 7.9454 35.6903 7.8964 35.6533 7.8484 35.6903 7.8964 35.7303 7.9454 35.7673 7.9954M36.3239 8.7806C36.2909 8.7316 36.2559 8.6836 36.2209 8.6346 36.2559 8.6836 36.2909 8.7316 36.3239 8.7806M34.5417 6.5062C34.5067 6.4682 34.4687 6.4312 34.4337 6.3932 34.4687 6.4312 34.5067 6.4682 34.5417 6.5062M37.7722 11.3206C37.7312 11.2336 37.6862 11.1476 37.6442 11.0606 37.6872 11.1476 37.7302 11.2336 37.7722 11.3206M38.531 13.1439C38.483 13.0119 38.432 12.8809 38.383 12.7499 38.432 12.8809 38.483 13.0109 38.531 13.1439M38.1745 12.222C38.1285 12.114 38.0795 12.005 38.0325 11.897 38.0805 12.005 38.1285 12.113 38.1745 12.222M36.8445 9.597C36.8115 9.541 36.7755 9.487 36.7405 9.431 36.7755 9.487 36.8105 9.541 36.8445 9.597M37.3279 10.4437C37.2909 10.3757 37.2519 10.3077 37.2149 10.2397 37.2519 10.3077 37.2909 10.3757 37.3279 10.4437"/>
    <path fill="#FFAF00" d="M16.3093,16.7308 C16.3093,21.6498 9.9263,26.4648 9.9263,26.4648 C9.9263,26.4648 3.5443,21.6498 3.5443,16.7308 C3.5443,13.2068 6.4023,10.3488 9.9263,10.3488 C13.4513,10.3488 16.3093,13.2068 16.3093,16.7308"/>
    <path fill="#FFF" d="M9.9265,13.2855 L10.7665,14.9085 C10.9035,15.1725 11.1555,15.3555 11.4475,15.4045 L13.2515,15.7015 L11.9675,17.0015 C11.7585,17.2125 11.6615,17.5105 11.7065,17.8035 L11.9815,19.6095 L10.3485,18.7905 C10.0825,18.6575 9.7705,18.6575 9.5055,18.7905 L7.8715,19.6095 L8.1465,17.8035 C8.1915,17.5105 8.0945,17.2125 7.8865,17.0015 L6.6025,15.7015 L8.4055,15.4045 C8.6975,15.3555 8.9505,15.1725 9.0865,14.9085 L9.9265,13.2855 Z"/>
    <path fill="#FFAF00" d="M12.6482 9.6312C12.5112 9.6312 12.4002 9.5212 12.4002 9.3832L12.4002 7.4562C12.4002 7.3182 12.5112 7.2082 12.6482 7.2082 12.7862 7.2082 12.8972 7.3182 12.8972 7.4562L12.8972 9.3832C12.8972 9.5212 12.7862 9.6312 12.6482 9.6312M18.4333 13.4886L16.5063 13.4886C16.3693 13.4886 16.2583 13.3786 16.2583 13.2406 16.2583 13.1036 16.3693 12.9926 16.5063 12.9926L18.4333 12.9926C18.5713 12.9926 18.6813 13.1036 18.6813 13.2406 18.6813 13.3786 18.5713 13.4886 18.4333 13.4886M15.3767 10.7611C15.3137 10.7611 15.2497 10.7371 15.2017 10.6891 15.1047 10.5911 15.1047 10.4351 15.2017 10.3371L16.5637 8.9751C16.6607 8.8781 16.8177 8.8781 16.9147 8.9751 17.0117 9.0721 17.0117 9.2291 16.9147 9.3251L15.5527 10.6891C15.5037 10.7371 15.4397 10.7611 15.3767 10.7611"/>
    <g transform="translate(39 18.7)">
      <mask id="page-1-x" fill="#fff">
        <use xlink:href="#page-1-w"/>
      </mask>
      <path fill="#FFAF00" d="M0.6726,0.1477 C0.6786,0.2797 0.6676,0.4127 0.6716,0.5437 C0.6756,0.5387 0.6786,0.5327 0.6816,0.5267 C0.6776,0.4007 0.6786,0.2737 0.6726,0.1477" mask="url(#page-1-x)"/>
    </g>
    <path fill="#FFAF00" d="M33.2341 33.2318L33.4271 33.4258C34.1191 33.0158 34.7901 32.5788 35.4441 32.1168 35.6151 31.8998 35.7631 31.6708 35.9241 31.4488 35.0631 32.0908 34.1631 32.6838 33.2341 33.2318M31.8737 31.8704L32.0677 32.0644C34.3237 30.7764 36.3897 29.1924 38.2047 27.3584 38.2967 27.1344 38.3957 26.9124 38.4797 26.6854 36.5547 28.7244 34.3287 30.4764 31.8737 31.8704M30.5114 30.5071L30.7074 30.7031C34.1454 28.8261 37.1204 26.2101 39.4274 23.0711 39.4574 22.8831 39.4784 22.6951 39.5034 22.5071 37.1674 25.8161 34.0914 28.5681 30.5114 30.5071M39.6609 18.6946C37.3159 23.1656 33.6269 26.8206 29.1319 29.1256L29.3289 29.3226C33.6949 27.0646 37.3069 23.5456 39.6719 19.2436 39.6679 19.1116 39.6789 18.9786 39.6729 18.8466 39.6699 18.7966 39.6659 18.7456 39.6609 18.6946"/>
    <path fill="#FFAF00" d="M39.2644,15.7347 C39.2434,15.6397 39.2244,15.5457 39.2024,15.4507 C39.1894,15.3907 39.1744,15.3327 39.1614,15.2727 C37.1124,20.7547 32.9894,25.2307 27.7494,27.7427 L27.9494,27.9417 C33.0914,25.4507 37.1574,21.0817 39.2644,15.7347"/>
    <path fill="#FFAF00" d="M38.3152,12.5726 C38.2702,12.4556 38.2252,12.3386 38.1772,12.2216 C38.1682,12.2006 38.1582,12.1786 38.1482,12.1566 C36.6432,18.5156 32.2092,23.7476 26.3402,26.3316 L26.5392,26.5306 C32.3262,23.9476 36.7192,18.8186 38.3152,12.5726"/>
    <path fill="#FFAF00" d="M36.9607,9.7952 C36.9227,9.7292 36.8867,9.6622 36.8477,9.5972 C36.8147,9.5432 36.7807,9.4902 36.7477,9.4382 C35.9827,16.4992 31.2947,22.3892 24.9167,24.9062 L25.1227,25.1122 C31.4367,22.5762 36.0817,16.7702 36.9607,9.7952"/>
    <path fill="#FFAF00" d="M35.2683,7.3978 C35.2683,7.3818 35.2653,7.3678 35.2653,7.3508 C35.2363,7.3138 35.2073,7.2758 35.1773,7.2388 C35.1313,7.1828 35.0823,7.1288 35.0363,7.0748 C35.0193,7.0538 35.0003,7.0338 34.9833,7.0128 C34.9863,7.1428 35.0023,7.2678 35.0023,7.3978 C35.0023,14.8518 30.1643,21.1848 23.4693,23.4588 L23.6753,23.6648 C30.4133,21.3208 35.2683,14.9228 35.2683,7.3978"/>
    <path fill="#FFAF00" d="M33.4079,7.3978 C33.4079,7.0408 33.3779,6.6898 33.3539,6.3378 L33.1009,6.5878 C33.1159,6.8578 33.1419,7.1248 33.1419,7.3978 C33.1419,14.3618 28.3999,20.2248 21.9799,21.9668 L22.1979,22.1848 C28.6549,20.3628 33.4079,14.4308 33.4079,7.3978"/>
    <path fill="#FFAF00" d="M31.5085,8.1634 L31.2295,8.4394 C30.7575,14.4544 26.2615,19.3464 20.4345,20.4194 L20.6665,20.6524 C26.6175,19.4714 31.1575,14.3704 31.5085,8.1634"/>
    <path fill="#FFAF00" d="M29.2917,10.3568 L28.9247,10.7208 C27.8097,14.3708 24.9067,17.2418 21.2417,18.3218 L20.8677,18.6918 C24.9747,17.6588 28.2157,14.4478 29.2917,10.3568"/>
    <path fill="#A9E2FF" d="M28.7058 37.6116C28.8808 37.5246 29.0558 37.4366 29.2268 37.3446 29.3288 37.2906 29.4298 37.2316 29.5308 37.1746 29.6948 37.0836 29.8578 36.9906 30.0188 36.8936 26.8498 38.1856 23.4288 38.9846 19.8498 39.1856L19.8498 39.4516C22.7718 39.2886 25.5888 38.7276 28.2528 37.8316 28.2848 37.8166 28.3168 37.8026 28.3498 37.7886 28.4688 37.7306 28.5878 37.6716 28.7058 37.6116M19.8493 37.3216L19.8493 37.5886C24.7853 37.2956 29.4043 35.8136 33.4273 33.4266L33.2333 33.2326C29.2633 35.5756 24.7113 37.0306 19.8493 37.3216M19.8493 35.4573L19.8493 35.7243C24.2713 35.4443 28.4193 34.1463 32.0663 32.0653L31.8713 31.8713C28.2793 33.9093 24.1983 35.1803 19.8493 35.4573M19.8493 33.5941L19.8493 33.8601C23.7583 33.5951 27.4393 32.4871 30.7043 30.7041L30.5093 30.5081C27.2983 32.2481 23.6853 33.3311 19.8493 33.5941M19.8493 31.7298L19.8493 31.9958C23.2443 31.7478 26.4483 30.8118 29.3253 29.3248L29.1273 29.1268C26.3063 30.5738 23.1693 31.4848 19.8493 31.7298M19.8493 29.8655L19.8493 30.1315C22.7293 29.9035 25.4623 29.1445 27.9443 27.9435L27.7453 27.7445C25.3203 28.9055 22.6563 29.6405 19.8493 29.8655M19.8493 27.9935L19.8493 28.2595C22.2113 28.0555 24.4583 27.4585 26.5343 26.5325L26.3343 26.3345C24.3193 27.2225 22.1383 27.7935 19.8493 27.9935M19.8493 26.1351L19.8493 26.4001C21.6953 26.2251 23.4593 25.7801 25.1163 25.1151L24.9093 24.9081C23.3143 25.5371 21.6203 25.9641 19.8493 26.1351M19.8493 24.2669L19.8493 24.5349C21.1743 24.3949 22.4493 24.0909 23.6673 23.6669L23.4613 23.4609C22.3063 23.8529 21.1003 24.1329 19.8493 24.2669M19.8493 22.388L19.8493 22.657C20.6503 22.561 21.4293 22.401 22.1883 22.187L21.9703 21.969C21.2803 22.157 20.5743 22.3 19.8493 22.388M19.8493 20.5091L19.8493 20.7781C20.1203 20.7401 20.3903 20.7061 20.6553 20.6551L20.4223 20.4211C20.2333 20.4561 20.0413 20.4831 19.8493 20.5091M33.1013 6.596L33.3543 6.344C33.3283 5.966 33.2883 5.594 33.2363 5.224 33.1323 5.129 33.0303 5.034 32.9243 4.942 33.0133 5.484 33.0723 6.035 33.1013 6.596M31.282 7.3978C31.282 7.7598 31.257 8.1158 31.228 8.4698L31.508 8.1908C31.523 7.9268 31.548 7.6658 31.548 7.3978 31.548 6.0018 31.335 4.6538 30.939 3.3858 30.822 3.3068 30.695 3.2418 30.577 3.1658 31.027 4.4968 31.282 5.9168 31.282 7.3978M29.4216 7.3978C29.4216 8.5808 29.2396 9.7208 28.9036 10.7938L29.2756 10.4228C29.5346 9.4568 29.6876 8.4458 29.6876 7.3978 29.6876 5.4168 29.1876 3.5498 28.3106 1.9148 28.1676 1.8468 28.0286 1.7728 27.8846 1.7098 28.8566 3.3848 29.4216 5.3248 29.4216 7.3978M19.8484 18.6312L19.8484 18.8992C20.2584 18.8342 20.6604 18.7492 21.0544 18.6432L21.4244 18.2732C20.9154 18.4322 20.3864 18.5442 19.8484 18.6312M27.5612 7.3978C27.5612 12.0318 24.2372 15.8998 19.8482 16.7518L19.8482 17.0198C24.3832 16.1638 27.8272 12.1788 27.8272 7.3978 27.8272 4.8328 26.8282 2.5018 25.2072.7518 25.0502.7088 24.8912.6708 24.7332.6308 26.4782 2.3598 27.5612 4.7538 27.5612 7.3978"/>
    <path fill="#A9E2FF" d="M25.7009,7.3978 C25.7009,11.0018 23.2019,14.0238 19.8479,14.8438 L19.8479,15.1178 C23.3499,14.2918 25.9669,11.1488 25.9669,7.3978 C25.9669,4.0908 23.9319,1.2518 21.0519,0.0608 C20.7279,0.0418 20.4079,0.0158 20.0809,0.0118 C23.3169,0.9128 25.7009,3.8778 25.7009,7.3978"/>
    <path fill="#A9E2FF" d="M23.8405,7.3978 C23.8405,9.9668 22.1635,12.1488 19.8485,12.9168 L19.8485,13.1988 C22.3135,12.4218 24.1065,10.1168 24.1065,7.3978 C24.1065,4.6798 22.3135,2.3748 19.8485,1.5978 L19.8485,1.8798 C22.1635,2.6468 23.8405,4.8288 23.8405,7.3978"/>
    <path fill="#A9E2FF" d="M21.9812,7.3978 C21.9812,8.9188 21.1092,10.2248 19.8482,10.8868 L19.8482,11.1878 C21.2612,10.5048 22.2462,9.0698 22.2462,7.3978 C22.2462,5.7268 21.2612,4.2918 19.8482,3.6088 L19.8482,3.9098 C21.1092,4.5708 21.9812,5.8778 21.9812,7.3978"/>
    <path fill="#A9E2FF" d="M20.614,7.43 C20.614,6.752 20.323,6.145 19.864,5.714 L19.864,6.107 C20.163,6.468 20.349,6.926 20.349,7.43 C20.349,7.935 20.163,8.392 19.864,8.754 L19.864,9.147 C20.323,8.715 20.614,8.108 20.614,7.43"/>
  </g>
</svg>
