<?xml version="1.0" encoding="UTF-8" standalone="no"?>
<svg width="16px" height="16px" viewBox="0 0 19 19" version="1.1" xmlns="http://www.w3.org/2000/svg" xmlns:xlink="http://www.w3.org/1999/xlink">
    <g id="02-Saved-Properties" stroke="none" stroke-width="1" fill="none" fill-rule="evenodd" stroke-linejoin="round">
        <g id="02-Saved-Properties---Desktop-HD--Account-Nav---Active" transform="translate(-1147.000000, -95.000000)" stroke="#0084ff">
            <g id="dropdown" transform="translate(1118.000000, 65.000000)">
                <g id="saved-properties" transform="translate(30.000000, 31.000000)">
                    <g id="icon---save">
                        <path d="M11.1816328,4.83425634 C11.4071529,5.33541203 12.0318347,5.74167898 12.5944373,5.74167898 L16.0197431,5.74167898 C17.1236506,5.74167898 17.3634344,6.35854979 16.5691349,7.10648534 L13.7361258,9.77412961 C13.333702,10.1530637 13.1118422,10.8956509 13.2423714,11.4401841 L14.3368649,16.0061215 C14.5949994,17.0829902 14.0797069,17.4220844 13.1996788,16.7736427 L9.49551813,14.0442611 C9.05457273,13.719354 8.33337552,13.7239839 7.89871358,14.0442611 L4.19455289,16.7736427 C3.30836789,17.4266211 2.8055081,17.0904685 3.07204945,16.0201531 L4.16544166,11.6295605 C4.29867794,11.0945409 4.0919757,10.3531074 3.68586765,9.9560286 L0.803912732,7.13814986 C0.0151255987,6.36690029 0.269552599,5.74167898 1.3744886,5.74167898 L4.79979443,5.74167898 C5.35454474,5.74167898 5.98521988,5.33954304 6.2125989,4.83425634 L7.8758771,1.13808256 C8.32943474,0.130176693 9.06349821,0.127290562 9.51835461,1.13808256 L11.1816328,4.83425634 Z" id="Stroke-4332"></path>
                    </g>
                </g>
            </g>
        </g>
    </g>
</svg>
