<svg width="14" height="14" viewBox="1 1 14 14" version="1.1" xmlns="http://www.w3.org/2000/svg" xmlns:xlink="http://www.w3.org/1999/xlink">
  <defs></defs>
  <g id="Star" stroke="none" stroke-width="1" fill="none" fill-rule="evenodd" transform="translate(1.000000, 1.000000)">
    <g id="Shape" fill-rule="nonzero" fill="#FFB200">
      <g id="Primary-Icons">
        <g id="save-hollow">
          <path d="M9.16383195,4.28820456 L7.50696084,0.500684376 C7.26166688,-0.06004466 6.75779055,-0.060411508 6.51233613,0.500684376 L4.85546499,4.28820456 C4.79756114,4.42056976 4.62214725,4.53754568 4.48338057,4.53754568 L0.90106135,4.53754568 C0.297047423,4.53754568 0.110613654,5.00581204 0.542609492,5.44031568 L3.42409247,8.33852612 C3.52994091,8.44498908 3.59200956,8.67093548 3.55637283,8.81814088 L2.49645245,13.1963768 C2.34832402,13.8082541 2.74674037,14.0807245 3.23983948,13.7069692 L6.81481177,10.9972402 C6.91684556,10.9199014 7.10221762,10.9197242 7.20448521,10.9972402 L10.7794575,13.7069692 C11.2709461,14.0795038 11.672065,13.8064918 11.5294952,13.1946726 L10.474917,8.66909216 C10.4409621,8.52337928 10.506388,8.2968022 10.6122761,8.19423556 L13.4641934,5.431778 C13.9046004,5.00518584 13.7240658,4.53754568 13.1182356,4.53754568 L9.53591637,4.53754568 C9.39831713,4.53754568 9.22113449,4.41919516 9.16383195,4.28820456 L9.16383195,4.28820456 Z" id="Shape"></path>
        </g>
      </g>
    </g>
  </g>
</svg>
