<?xml version="1.0" encoding="UTF-8"?>
<svg width="16px" height="16px" viewBox="0 0 16 16" version="1.1" xmlns="http://www.w3.org/2000/svg" xmlns:xlink="http://www.w3.org/1999/xlink">
    <title>search</title>
    <defs></defs>
    <g id="Page-1" stroke="none" stroke-width="1" fill="none" fill-rule="evenodd">
        <g id="search" fill-rule="nonzero" fill="#FFFFFF">
            <path d="M0.103853955,6.04102452 C0.103853955,9.33345547 2.7297698,11.9781951 5.99876708,11.9781951 C7.4457003,11.9781951 8.73186317,11.4384523 9.75007543,10.5748639 L14.1444652,15.0007547 C14.2516455,15.1087032 14.4124158,15.1626775 14.5731862,15.1626775 C14.7339565,15.1626775 14.8947269,15.1087032 15.0019071,15.0007547 C15.2162676,14.7848575 15.2162676,14.4070376 15.0019071,14.1911405 L10.6075173,9.7652497 C11.4113691,8.73973842 11.9472703,7.44435575 11.9472703,6.04102452 C11.9472703,2.74859357 9.32135448,0.103853955 6.0523572,0.103853955 C2.78335992,0.103853955 0.103853955,2.74859357 0.103853955,6.04102452 Z M10.7682877,6.04102452 C10.7682877,8.68576414 8.62468293,10.8447353 5.99876708,10.8447353 C3.37285123,10.8447353 1.22924646,8.68576414 1.22924646,6.04102452 C1.22924646,3.39628491 3.37285123,1.23731379 5.99876708,1.23731379 C8.62468293,1.23731379 10.7682877,3.39628491 10.7682877,6.04102452 L10.7682877,6.04102452 Z" id="Shape"></path>
        </g>
    </g>
</svg>
